<svg width="157" height="25" viewBox="0 0 157 25" fill="none" xmlns="http://www.w3.org/2000/svg">
<path d="M140.83 0.56073L150 24.0465H146.537L143.931 16.8556H134.068L131.396 24.0465H128.098L137.334 0.56073H140.83ZM143.007 14.3817L139.016 3.52944L134.959 14.3817H143.007Z" fill="white"/>
<path d="M109 1H119.325C124.569 1 127.208 3.17705 127.208 7.49817C127.208 8.88357 126.812 10.0711 126.087 11.1266C125.361 12.1821 124.371 12.8748 123.184 13.2047C123.975 13.4026 124.602 13.6335 125.097 13.9634C125.559 14.2932 125.922 14.755 126.153 15.3488C126.35 15.9425 126.515 16.4703 126.581 16.9321C126.647 17.3939 126.68 18.0866 126.746 18.9772C126.746 19.0761 126.746 19.307 126.779 19.6369C126.779 19.9667 126.812 20.1976 126.812 20.3296C126.812 20.4615 126.812 20.6594 126.845 20.9563C126.878 21.2862 126.911 21.5171 126.944 21.649C126.944 21.8139 126.977 22.0119 127.043 22.2757C127.076 22.5396 127.142 22.7705 127.208 22.9354C127.274 23.1004 127.34 23.2983 127.439 23.4962C127.505 23.6941 127.604 23.892 127.736 24.057C127.835 24.2219 127.967 24.3538 128.099 24.4858H124.536C124.371 24.2879 124.239 23.991 124.14 23.6611C124.041 23.3313 123.975 22.9684 123.942 22.5066C123.877 22.0448 123.844 21.682 123.844 21.4181C123.811 21.1542 123.778 20.7254 123.778 20.1976C123.745 19.6699 123.745 19.373 123.745 19.307C123.613 17.3279 123.217 15.9755 122.491 15.3158C121.765 14.6561 120.38 14.3262 118.269 14.3262H112.101V24.4858H109V1ZM112.101 3.63885V11.8523H117.939C118.665 11.8523 119.259 11.8523 119.753 11.7863C120.248 11.7533 120.809 11.6544 121.403 11.4894C121.996 11.3575 122.458 11.1266 122.821 10.8297C123.184 10.5658 123.481 10.137 123.745 9.60925C123.975 9.08148 124.107 8.45475 124.107 7.69608C124.107 6.11277 123.613 5.05723 122.656 4.49648C121.699 3.93572 120.413 3.63885 118.764 3.63885H112.101Z" fill="white"/>
<path d="M93.5897 0C97.1521 0 99.9229 1.12151 101.902 3.36454C103.881 5.60756 104.871 8.51029 104.871 12.1057C104.871 15.7342 103.881 18.7358 101.935 21.0778C99.9559 23.4528 97.1851 24.6073 93.6227 24.6073C91.7755 24.6073 90.1592 24.2774 88.7078 23.6177C87.2565 22.958 86.069 22.0674 85.1454 20.8799C84.2218 19.7254 83.5291 18.406 83.0673 16.8886C82.6055 15.4043 82.3746 13.788 82.3746 12.0398C82.3746 8.37835 83.3642 5.44263 85.4093 3.26558C87.4544 1.08853 90.1592 0 93.5897 0ZM93.5897 2.70482C90.9508 2.70482 88.9387 3.62842 87.5533 5.47562C86.1679 7.32281 85.4422 9.56584 85.4422 12.2707C85.4422 15.2394 86.2009 17.5813 87.6853 19.3296C89.1696 21.0778 91.1488 21.9354 93.6227 21.9354C96.0966 21.9354 98.0757 21.0778 99.5601 19.2966C101.011 17.5484 101.77 15.2064 101.77 12.2707C101.77 9.36792 101.011 7.05893 99.5271 5.31069C98.0428 3.59544 96.0636 2.70482 93.5897 2.70482Z" fill="white"/>
<path d="M81.2325 0.56073V3.26555H73.3489V24.0465H70.2483V3.26555H62.3647V0.56073H81.2325Z" fill="white"/>
<path d="M60.3577 7.45473L57.3231 7.48772C56.9932 4.28811 55.0471 2.7048 51.4846 2.7048C49.8023 2.7048 48.4829 3.03466 47.5593 3.72736C46.6357 4.38707 46.1739 5.34365 46.1739 6.59711C46.1739 7.02592 46.2399 7.42175 46.3718 7.75161C46.5038 8.08146 46.7347 8.34535 47.0645 8.60923C47.3944 8.87312 47.6913 9.07103 47.9551 9.26894C48.252 9.43387 48.7138 9.5988 49.3076 9.76373C49.9343 9.96164 50.4291 10.0936 50.7919 10.1596C51.1877 10.2255 51.7485 10.3575 52.5402 10.5224C53.5297 10.7203 54.3214 10.9182 54.9481 11.0832C55.6078 11.2481 56.3665 11.512 57.2241 11.8748C58.1147 12.2706 58.8074 12.6665 59.3352 13.1283C59.863 13.5901 60.2918 14.1838 60.6876 14.9095C61.0834 15.6682 61.2484 16.5258 61.2484 17.4494C61.2484 19.0987 60.7866 20.4841 59.863 21.6056C58.9394 22.7271 57.8179 23.4858 56.4984 23.9146C55.179 24.3764 53.7276 24.5743 52.1113 24.5743C49.1756 24.5743 46.8336 23.8816 45.0524 22.4962C43.2712 21.1108 42.3806 19.0327 42.3806 16.2949H45.3823C45.4482 18.307 46.1409 19.7584 47.3944 20.682C48.6808 21.6056 50.3301 22.0674 52.3752 22.0674C53.9915 22.0674 55.3769 21.7045 56.5314 21.0448C57.6529 20.3851 58.2467 19.2966 58.2467 17.7792C58.2467 17.0536 58.0817 16.4598 57.7849 15.965C57.455 15.4702 56.9932 15.0744 56.3335 14.7446C55.6738 14.4147 55.0141 14.1838 54.3544 13.9859C53.6946 13.788 52.804 13.5571 51.7485 13.3262C51.5836 13.2932 51.4846 13.2602 51.4186 13.2272C48.9777 12.6995 47.3944 12.2377 46.6687 11.9078C44.3597 10.9182 43.2382 9.23596 43.2382 6.79502C43.2382 4.552 44.0628 2.90272 45.7121 1.78121C47.3614 0.659692 49.3735 0.098938 51.7155 0.098938C54.2884 0.098938 56.3665 0.725665 57.8838 1.94613C59.4342 3.19959 60.2588 5.0138 60.3577 7.45473Z" fill="white"/>
<path d="M40.0144 0.56073V3.26555H26.8531V10.6214H39.1568V13.2272H26.8531V21.3417H40.1793V24.0465H23.7525V0.56073H40.0144Z" fill="white"/>
<path d="M0 0.56073H3.39752L15.8001 19.6264V0.56073H18.8018V24.0465H15.3053L2.96871 5.2117V24.0465H0V0.56073Z" fill="white"/>
<path d="M153.04 7V3.91218H150V3.08782H153.04V0H153.96V3.08782H157V3.91218H153.96V7H153.04Z" fill="white"/>
</svg>
