<svg width="142" height="51" viewBox="0 0 142 51" fill="none" xmlns="http://www.w3.org/2000/svg">
<path d="M106.936 14.7271V35.9998H110.042V14.7271H106.936Z" fill="black"/>
<path fill-rule="evenodd" clip-rule="evenodd" d="M78.856 36.3435C77.6305 36.3435 76.6068 36.0574 75.7847 35.485C75.6947 35.4225 75.6074 35.3573 75.5222 35.2897V36.0001H72.7821V15.0708H75.9104V24.0369C76.6778 23.5422 77.6063 23.2948 78.696 23.2948C79.8758 23.2948 80.9033 23.5772 81.7787 24.1418C82.6541 24.7065 83.3314 25.4811 83.8107 26.4655C84.2979 27.4422 84.5414 28.5601 84.5414 29.819C84.5414 31.0553 84.3018 32.1656 83.8222 33.1501C83.3505 34.1344 82.6881 34.9128 81.8358 35.485C80.9833 36.0574 79.9901 36.3435 78.856 36.3435ZM75.7962 27.8505C75.6134 28.415 75.5222 29.0712 75.5222 29.819C75.5222 30.5669 75.6134 31.2233 75.7962 31.7879C75.9787 32.3527 76.2758 32.7912 76.6865 33.1043C77.1052 33.4171 77.6609 33.5734 78.3535 33.5734C79.0233 33.5734 79.5714 33.4057 79.9977 33.07C80.424 32.7342 80.7398 32.284 80.9452 31.7191C81.1508 31.147 81.2534 30.5137 81.2534 29.819C81.2534 29.1323 81.147 28.5067 80.9337 27.9421C80.7207 27.3697 80.3897 26.9156 79.9406 26.5799C79.4991 26.2365 78.9319 26.0648 78.2393 26.0648C77.5924 26.0648 77.0671 26.2213 76.664 26.5341C76.2682 26.847 75.9787 27.2857 75.7962 27.8505Z" fill="black"/>
<path d="M67.8725 28.697V35.9998H70.9777V27.8731C70.9777 26.5224 70.6162 25.4312 69.8931 24.5994C69.1777 23.76 68.1159 23.3403 66.7079 23.3403C65.8858 23.3403 65.1361 23.5235 64.4588 23.8897C63.8385 24.2218 63.3326 24.6782 62.9408 25.2589C62.6487 24.7319 62.245 24.2984 61.73 23.9584C61.1136 23.5463 60.322 23.3403 59.3555 23.3403C58.5105 23.3403 57.7456 23.5273 57.0606 23.9012C56.5429 24.1869 56.1052 24.5506 55.7475 24.9923V23.6379H53.0076V35.9998H56.1357V28.514C56.1357 27.8044 56.3299 27.2282 56.7181 26.7856C57.1139 26.3354 57.6351 26.1103 58.282 26.1103C58.9597 26.1103 59.4885 26.3392 59.8691 26.7971C60.2572 27.2473 60.4515 27.8807 60.4515 28.697V35.9998H63.5567V28.514C63.5567 28.0408 63.6443 27.6249 63.8195 27.2664C64.002 26.9001 64.2531 26.6177 64.573 26.4194C64.8926 26.2133 65.2694 26.1103 65.7033 26.1103C66.3807 26.1103 66.9095 26.3392 67.2901 26.7971C67.6782 27.2473 67.8725 27.8807 67.8725 28.697Z" fill="black"/>
<path d="M41.8818 35.8741C42.4906 36.2022 43.2784 36.3664 44.2452 36.3664C45.4552 36.3664 46.4563 36.1032 47.2479 35.5766C47.6236 35.3292 47.9547 35.0453 48.2411 34.7254V36.0001H50.9813V23.6382H47.8529V29.9106C47.8529 30.6737 47.7653 31.2917 47.5904 31.7649C47.4228 32.2305 47.206 32.5853 46.9394 32.8294C46.6731 33.0661 46.3878 33.2262 46.0834 33.3102C45.779 33.3942 45.4933 33.4362 45.227 33.4362C44.5649 33.4362 44.051 33.2873 43.6857 32.9897C43.328 32.6922 43.0693 32.3221 42.9093 31.8795C42.7496 31.4368 42.6544 30.998 42.6239 30.563C42.5935 30.1206 42.5782 29.7582 42.5782 29.4756V23.6382H39.4273V30.5745C39.4273 30.7806 39.4423 31.1087 39.4727 31.559C39.5032 32.0093 39.5908 32.5089 39.7355 33.0585C39.88 33.6001 40.1199 34.1229 40.4548 34.6266C40.7973 35.1301 41.273 35.546 41.8818 35.8741Z" fill="black"/>
<path d="M85.9122 23.6379V35.9998H89.0402V29.6815C89.0402 29.2083 89.105 28.7848 89.2345 28.4109C89.364 28.0293 89.5541 27.7013 89.8052 27.4266C90.0566 27.1442 90.3648 26.9191 90.7301 26.7513C91.0954 26.5758 91.5027 26.4727 91.9518 26.4422C92.4083 26.4041 92.8079 26.4384 93.1504 26.5452V23.6379C92.7774 23.5921 92.4045 23.5845 92.0315 23.615C91.6585 23.6379 91.297 23.7027 90.9469 23.8096C90.5968 23.9088 90.2734 24.05 89.9766 24.2331C89.5884 24.462 89.2611 24.752 88.9948 25.103C88.8686 25.2692 88.7544 25.4439 88.6521 25.6272V23.6379H85.9122Z" fill="black"/>
<path fill-rule="evenodd" clip-rule="evenodd" d="M99.6889 36.3436C98.4253 36.3436 97.3103 36.0728 96.3438 35.5309C95.3846 34.9816 94.631 34.2299 94.0832 33.2759C93.5427 32.3146 93.2725 31.2158 93.2725 29.9795C93.2725 28.6289 93.5388 27.4538 94.0717 26.4541C94.6044 25.4544 95.3389 24.6799 96.2752 24.1305C97.2113 23.5735 98.2885 23.2949 99.5061 23.2949C100.8 23.2949 101.9 23.6002 102.806 24.2106C103.711 24.8211 104.381 25.6795 104.815 26.786C105.249 27.8926 105.401 29.1935 105.272 30.6891H96.6139C96.7107 31.4312 96.9406 32.0339 97.3027 32.4976C97.8051 33.1235 98.5396 33.4363 99.5061 33.4363C100.115 33.4363 100.636 33.3027 101.07 33.0357C101.504 32.7687 101.835 32.3833 102.063 31.8796L105.169 32.7725C104.705 33.9019 103.97 34.7792 102.966 35.4049C101.969 36.0308 100.876 36.3436 99.6889 36.3436ZM101.596 26.8318C101.861 27.1933 102.039 27.7085 102.13 28.3769H96.6955C96.8165 27.8061 97.0189 27.3368 97.3027 26.9692C97.8051 26.3205 98.5853 25.9962 99.6432 25.9962C100.549 25.9962 101.2 26.2748 101.596 26.8318Z" fill="black"/>
<path d="M112.551 35.9998V14.7271H115.657V35.9998H112.551Z" fill="black"/>
<path fill-rule="evenodd" clip-rule="evenodd" d="M119.114 35.8399C119.73 36.1756 120.48 36.3436 121.363 36.3436C122.428 36.3436 123.307 36.1603 124 35.794C124.552 35.4992 125.073 35.0623 125.564 34.4828V36.0002H128.282V28.4457C128.282 27.8811 128.259 27.3698 128.213 26.9119C128.167 26.4541 128.023 25.9962 127.779 25.5384C127.345 24.7142 126.706 24.1343 125.861 23.7986C125.016 23.4628 124.05 23.2949 122.961 23.2949C121.477 23.2949 120.305 23.6154 119.445 24.2564C118.585 24.8974 117.998 25.7291 117.686 26.7517L120.495 27.6444C120.693 27.0798 121.039 26.6868 121.534 26.4655C122.029 26.2442 122.504 26.1336 122.961 26.1336C123.783 26.1336 124.369 26.3053 124.719 26.6487C124.994 26.9183 125.161 27.3079 125.22 27.8176C124.694 27.8975 124.196 27.9733 123.726 28.045C122.927 28.1596 122.211 28.2818 121.58 28.4113C120.948 28.5411 120.404 28.69 119.947 28.8578C119.285 29.1019 118.756 29.4073 118.36 29.7736C117.972 30.1322 117.69 30.5479 117.515 31.021C117.34 31.4942 117.253 32.017 117.253 32.5892C117.253 33.2759 117.409 33.9054 117.721 34.4779C118.04 35.0424 118.505 35.4965 119.114 35.8399ZM123.464 33.5964C123.075 33.7949 122.596 33.8942 122.025 33.8942C121.667 33.8942 121.359 33.8408 121.1 33.7339C120.841 33.6269 120.64 33.4745 120.495 33.2759C120.358 33.07 120.29 32.8257 120.29 32.5434C120.29 32.3375 120.331 32.1504 120.415 31.9827C120.506 31.8147 120.643 31.6622 120.826 31.5248C121.016 31.3797 121.264 31.2463 121.568 31.1241C121.835 31.0249 122.143 30.9332 122.493 30.8495C122.843 30.7655 123.304 30.6739 123.874 30.5746C124.241 30.5061 124.68 30.4279 125.192 30.3403C125.185 30.5579 125.172 30.8039 125.153 31.0783C125.13 31.5209 125.039 31.9101 124.879 32.2459C124.795 32.4212 124.635 32.6389 124.4 32.8982C124.171 33.1576 123.859 33.3905 123.464 33.5964Z" fill="black"/>
<path fill-rule="evenodd" clip-rule="evenodd" d="M22.2892 23.7271H13.8563V27.409C13.8563 32.9066 18.3017 37.3635 23.7854 37.3635C29.2691 37.3635 33.7147 32.9066 33.7147 27.409V23.7271H25.0095V17.8635C25.0095 15.5288 23.1218 13.6362 20.7931 13.6362C18.4644 13.6362 16.5766 15.5288 16.5766 17.8635H19.2969C19.2969 17.0351 19.9668 16.3635 20.7931 16.3635C21.6194 16.3635 22.2892 17.0351 22.2892 17.8635V23.7271ZM22.2892 26.4544V31.6362H25.0095V26.4544H30.9944V27.409C30.9944 31.4006 27.7667 34.6362 23.7854 34.6362C19.8041 34.6362 16.5766 31.4006 16.5766 27.409V26.4544H22.2892Z" fill="black"/>
</svg>
