<svg width="132" height="51" viewBox="0 0 132 51" fill="none" xmlns="http://www.w3.org/2000/svg">
<path d="M14.4532 29.2262L21.7821 25.9536L26.0005 28.4079L26.8527 36.4598L21.6543 36.4169L22.4213 30.8191L21.5265 30.3024L17.1376 33.7472L14.4532 29.2262Z" fill="black"/>
<path d="M26.4695 28.0631L32.9463 32.8425L35.5028 28.2354L30.3042 26.1255V25.0921L35.5028 22.9392L32.9463 18.375L26.4695 23.1545V28.0631Z" fill="black"/>
<path d="M26.0005 22.7672L26.8527 14.7153L21.6543 14.8015L22.4213 20.399L21.5265 20.9157L17.095 17.4711L14.4532 21.9491L21.7821 25.2216L26.0005 22.7672Z" fill="black"/>
<path d="M52.8456 24.6227V32.1664H55.6434V22.5527H51.569V24.6227H52.8456Z" fill="black"/>
<path d="M52.7581 21.202C53.0146 21.471 53.4051 21.6054 53.9296 21.6054C54.4545 21.6054 54.8389 21.471 55.0836 21.202C55.3403 20.9212 55.4683 20.5703 55.4683 20.1494C55.4683 19.7166 55.3403 19.3658 55.0836 19.0968C54.8389 18.8162 54.4545 18.6758 53.9296 18.6758C53.4051 18.6758 53.0146 18.8162 52.7581 19.0968C52.5135 19.3658 52.391 19.7166 52.391 20.1494C52.391 20.5703 52.5135 20.9212 52.7581 21.202Z" fill="black"/>
<path d="M43.1059 31.9554C43.8985 32.3179 44.8719 32.4993 46.0258 32.4993C47.1101 32.4993 48.0425 32.3295 48.8238 31.9905C49.6048 31.6514 50.205 31.1776 50.6247 30.5694C51.0562 29.9496 51.2717 29.2304 51.2717 28.4117C51.2717 27.6165 51.0681 26.944 50.6599 26.3942C50.2634 25.8329 49.7099 25.3944 48.9985 25.0787C48.2874 24.7511 47.4656 24.5464 46.533 24.4647L45.5538 24.3769C44.9709 24.3301 44.5512 24.1723 44.2948 23.9032C44.0383 23.6342 43.91 23.3184 43.91 22.956C43.91 22.6752 43.9802 22.418 44.1197 22.1841C44.2598 21.9384 44.4695 21.7455 44.7494 21.6051C45.0408 21.4648 45.3964 21.3946 45.8161 21.3946C46.2589 21.3946 46.6263 21.4764 46.9177 21.6403C46.9818 21.6749 47.0428 21.7119 47.1 21.7511L47.1138 21.7609C47.1352 21.7757 47.1563 21.7911 47.1768 21.8067C47.3539 21.9424 47.4948 22.1033 47.5997 22.2893C47.751 22.5466 47.8273 22.8331 47.8273 23.1489H50.6247C50.6247 22.3068 50.4323 21.5759 50.0479 20.9561C49.6631 20.3245 49.1094 19.8392 48.3868 19.4999C47.6753 19.1491 46.8186 18.9736 45.8161 18.9736C44.86 18.9736 44.0325 19.1375 43.3329 19.4649C42.6336 19.7807 42.0857 20.2368 41.6894 20.8332C41.3044 21.4297 41.112 22.1373 41.112 22.956C41.112 24.0904 41.4913 25.0025 42.2489 25.6926C43.0065 26.3827 44.0209 26.7803 45.2915 26.8855L46.2534 26.9732C47.0341 27.0434 47.5997 27.2013 47.9495 27.4468C48.2989 27.6807 48.474 28.0023 48.474 28.4117C48.474 28.5998 48.4434 28.7762 48.3818 28.9411C48.3362 29.0635 48.2738 29.1794 48.1944 29.2889C48.0075 29.5343 47.7337 29.7273 47.3723 29.8679C47.011 30.0081 46.5622 30.0782 46.0258 30.0782C45.4313 30.0782 44.9475 29.9965 44.5746 29.8325C44.2015 29.6572 43.9219 29.4292 43.735 29.1487C43.5602 28.8678 43.473 28.5638 43.473 28.2362H40.6926C40.6926 29.0666 40.8966 29.8035 41.3044 30.4465C41.7125 31.0782 42.313 31.5813 43.1059 31.9554Z" fill="black"/>
<path d="M61.8857 32.289C60.9181 32.289 60.1371 32.1722 59.5427 31.9381C58.948 31.6927 58.5109 31.289 58.231 30.7277C57.963 30.1545 57.829 29.3829 57.829 28.4121V24.6053H56.3776V22.5528H57.829V19.9565H60.4343V22.5528H63.2323V24.6053H60.4343V28.5174C60.4343 28.9735 60.551 29.3243 60.7841 29.5698C61.0288 29.8039 61.3728 29.9207 61.8158 29.9207H63.2323V32.289H61.8857Z" fill="black"/>
<path fill-rule="evenodd" clip-rule="evenodd" d="M66.6007 32.0784C67.2301 32.3589 67.9531 32.4994 68.7691 32.4994C69.5732 32.4994 70.2846 32.3589 70.9024 32.0784C71.5203 31.7976 72.0332 31.4058 72.4411 30.9031C72.8492 30.4 73.1233 29.8269 73.2628 29.1839H70.6924C70.576 29.4762 70.3545 29.7217 70.0281 29.9205C69.7017 30.1193 69.2817 30.2189 68.7691 30.2189C68.4513 30.2189 68.1674 30.181 67.9173 30.1056C67.7269 30.0483 67.5562 29.9692 67.4052 29.868C67.0554 29.6342 66.7989 29.3064 66.6357 28.8856C66.5903 28.7657 66.5516 28.6402 66.519 28.5096C66.4858 28.3772 66.4589 28.2395 66.4387 28.0961H73.4379V27.1488C73.4379 26.2717 73.2513 25.4647 72.8784 24.7279C72.5052 23.9793 71.963 23.3771 71.2522 22.921C70.5526 22.4531 69.6899 22.2192 68.6639 22.2192C67.8829 22.2192 67.1833 22.3596 66.5655 22.6403C65.9598 22.9092 65.4526 23.2776 65.0445 23.7454C64.6366 24.2133 64.3218 24.7455 64.0999 25.3419C63.8903 25.9266 63.7854 26.5406 63.7854 27.1838V27.5347C63.7854 28.1546 63.8903 28.7627 64.0999 29.3592C64.3218 29.9439 64.6366 30.476 65.0445 30.9555C65.4641 31.4235 65.9826 31.7976 66.6007 32.0784ZM66.4869 26.3615C66.4947 26.3243 66.5028 26.2878 66.5118 26.2517C66.536 26.1526 66.564 26.0575 66.5958 25.9667C66.6137 25.915 66.6328 25.8646 66.6533 25.8155C66.828 25.3828 67.0845 25.0554 67.4225 24.8332C67.549 24.7501 67.6859 24.6826 67.8329 24.6306C68.0802 24.5435 68.3575 24.4998 68.6639 24.4998C69.1422 24.4998 69.5382 24.611 69.8531 24.8332C70.1795 25.0437 70.4244 25.3535 70.5876 25.7629C70.6009 25.7959 70.6133 25.8295 70.6254 25.8636C70.6448 25.9178 70.6627 25.9735 70.6794 26.0305C70.704 26.1154 70.7257 26.2033 70.7447 26.2941C70.7586 26.361 70.7704 26.4296 70.7811 26.4998H66.4601C66.4682 26.4529 66.4771 26.4068 66.4869 26.3615Z" fill="black"/>
<path d="M74.5924 32.1662V22.5526H76.8133V24.9739C76.8433 24.8299 76.8777 24.6918 76.9161 24.5593C76.9491 24.4477 76.9843 24.3401 77.023 24.2367C77.2679 23.5817 77.6351 23.0906 78.1246 22.763C78.6142 22.4239 79.2144 22.2544 79.9259 22.2544H80.048C80.771 22.2544 81.3712 22.4239 81.8492 22.763C82.3388 23.0906 82.7062 23.5817 82.9509 24.2367L82.9702 24.2861L82.9867 24.3313C82.9977 24.2994 83.0092 24.2679 83.0208 24.2367C83.2773 23.5817 83.6504 23.0906 84.14 22.763C84.6296 22.4239 85.2301 22.2544 85.9412 22.2544H86.0637C86.7861 22.2544 87.3924 22.4239 87.882 22.763C88.3834 23.0906 88.7623 23.5817 89.0185 24.2367C89.275 24.8916 89.4036 25.7103 89.4036 26.6927V32.1662H86.6056V26.5348C86.6056 26.0085 86.4658 25.5816 86.1859 25.2542C85.9178 24.9267 85.5331 24.763 85.032 24.763C84.5305 24.763 84.1342 24.9326 83.8428 25.2717C83.5514 25.5992 83.4055 26.0377 83.4055 26.5875V32.1662H80.5902V26.5348C80.5902 26.0085 80.4504 25.5816 80.1705 25.2542C79.9025 24.9267 79.5235 24.763 79.0342 24.763C78.5209 24.763 78.1189 24.9326 77.8274 25.2717C77.536 25.5992 77.3901 26.0377 77.3901 26.5875V32.1662H74.5924Z" fill="black"/>
<path fill-rule="evenodd" clip-rule="evenodd" d="M96.877 30.3136V32.1661H99.0976V26.2715C99.0976 25.3826 98.9229 24.6576 98.5731 24.0962C98.2233 23.5231 97.7106 23.0962 97.0345 22.8156C96.3701 22.5349 95.5481 22.3945 94.5689 22.3945C94.3566 22.3945 94.1351 22.3968 93.904 22.4015C93.7677 22.4043 93.6276 22.4078 93.4846 22.4121C93.0999 22.4238 92.7267 22.4413 92.3656 22.4647L92.0895 22.4834C91.9477 22.4933 91.8145 22.503 91.6892 22.5129C91.595 22.5202 91.5058 22.5276 91.4214 22.5349V24.9032C91.7828 24.8798 92.1848 24.8564 92.6279 24.8331C92.7518 24.8265 92.8746 24.8205 92.9965 24.8148C93.1727 24.8066 93.3463 24.7996 93.5181 24.7934C93.6539 24.7884 93.7885 24.784 93.9219 24.7803C94.3413 24.7686 94.6795 24.7628 94.936 24.7628C95.449 24.7628 95.8219 24.8856 96.0553 25.1312C96.2884 25.3768 96.4048 25.7452 96.4048 26.2365V26.2715H94.6738C93.8228 26.2715 93.071 26.3827 92.4179 26.6049C91.7651 26.8153 91.2579 27.1487 90.8969 27.6048C90.5353 28.0493 90.3547 28.6223 90.3547 29.324C90.3547 29.9673 90.5003 30.5228 90.7918 30.9908C91.0832 31.4466 91.4853 31.7975 91.9982 32.0429C92.5231 32.2886 93.1293 32.4115 93.8168 32.4115C94.4814 32.4115 95.0409 32.2886 95.4958 32.0429C95.962 31.7975 96.3233 31.4466 96.5798 30.9908C96.6249 30.9137 96.667 30.834 96.7063 30.7511C96.7618 30.634 96.8112 30.5109 96.8548 30.3817L96.877 30.3136ZM96.4048 28.6048V27.8329H94.6561C94.1666 27.8329 93.7879 27.9556 93.5199 28.2013C93.2634 28.4352 93.1348 28.7568 93.1348 29.1661C93.1348 29.3588 93.1669 29.5338 93.2307 29.6917C93.2951 29.8499 93.3913 29.9905 93.5199 30.1133C93.7879 30.3475 94.1666 30.4642 94.6561 30.4642C94.7494 30.4642 94.8396 30.4596 94.9265 30.4506C94.9976 30.4431 95.0666 30.4324 95.1333 30.4187C95.2616 30.3927 95.3826 30.355 95.4958 30.3063C95.7523 30.1895 95.962 29.9965 96.1249 29.7273C96.2884 29.4584 96.3817 29.0841 96.4048 28.6048Z" fill="black"/>
<path d="M100.772 32.166V22.5524H102.993V25.7256C103.099 24.8197 103.368 24.0894 103.797 23.5348C104.38 22.7981 105.219 22.4297 106.316 22.4297H106.683V24.8505H105.983C105.214 24.8505 104.619 25.061 104.199 25.4821C103.78 25.8914 103.57 26.4879 103.57 27.2714V32.166H100.772Z" fill="black"/>
<path d="M110.23 27.6751H111.157L114.182 32.1663H117.33L113.494 26.6507L116.648 22.5526H113.71L110.23 27.1237V19.3599H107.433V32.1663H110.23V27.6751Z" fill="black"/>
</svg>
