<svg width="563" height="93" viewBox="0 0 563 93" fill="none" xmlns="http://www.w3.org/2000/svg">
<path d="M528.582 2.1048L563 90.2547H550L540.22 63.265H503.202L493.173 90.2547H480.793L515.459 2.1048H528.582ZM536.753 53.9796L521.773 13.2473L506.544 53.9796H536.753Z" fill="white"/>
<path d="M407.502 2.1048H446.254C465.939 2.1048 475.843 10.276 475.843 26.4946C475.843 31.6945 474.357 36.1515 471.634 40.1133C468.91 44.0751 465.196 46.675 460.739 47.9131C463.71 48.6559 466.062 49.5225 467.92 50.7606C469.653 51.9987 471.015 53.7319 471.881 55.9605C472.624 58.189 473.243 60.1699 473.491 61.9031C473.738 63.6364 473.862 66.2364 474.11 69.5791C474.11 69.9505 474.11 70.8172 474.234 72.0552C474.234 73.2933 474.357 74.16 474.357 74.6552C474.357 75.1504 474.357 75.8932 474.481 77.0075C474.605 78.2455 474.729 79.1122 474.853 79.6074C474.853 80.2265 474.976 80.9693 475.224 81.9597C475.348 82.9502 475.596 83.8168 475.843 84.4359C476.091 85.0549 476.338 85.7977 476.71 86.5406C476.957 87.2834 477.329 88.0262 477.824 88.6453C478.195 89.2643 478.691 89.7595 479.186 90.2547H465.815C465.196 89.5119 464.701 88.3976 464.329 87.1596C463.958 85.9215 463.71 84.5597 463.586 82.8264C463.339 81.0931 463.215 79.7312 463.215 78.7408C463.091 77.7503 462.967 76.1408 462.967 74.1599C462.844 72.179 462.844 71.0648 462.844 70.8172C462.348 63.3888 460.863 58.3128 458.139 55.8366C455.415 53.3605 450.215 52.1225 442.292 52.1225H419.14V90.2547H407.502V2.1048ZM419.14 12.0093V42.837H441.054C443.777 42.837 446.006 42.837 447.863 42.5894C449.72 42.4656 451.825 42.0942 454.053 41.4751C456.282 40.9799 458.015 40.1133 459.377 38.999C460.739 38.0086 461.853 36.3991 462.844 34.4182C463.71 32.4373 464.205 30.085 464.205 27.2374C464.205 21.2947 462.348 17.3329 458.758 15.2282C455.168 13.1235 450.339 12.0093 444.149 12.0093H419.14Z" fill="white"/>
<path d="M351.273 0C364.644 0 375.044 4.2094 382.472 12.6282C389.9 21.047 393.614 31.942 393.614 45.4368C393.614 59.0555 389.9 70.3219 382.596 79.1121C375.167 88.0261 364.768 92.3594 351.397 92.3594C344.463 92.3594 338.397 91.1213 332.95 88.6452C327.502 86.169 323.045 82.8263 319.578 78.3693C316.112 74.036 313.512 69.0838 311.779 63.3887C310.045 57.8174 309.179 51.751 309.179 45.1892C309.179 31.4468 312.893 20.428 320.569 12.2568C328.245 4.0856 338.397 0 351.273 0ZM351.273 10.1521C341.368 10.1521 333.816 13.6187 328.616 20.5518C323.416 27.485 320.693 35.9038 320.693 46.0559C320.693 57.1984 323.54 65.9886 329.112 72.5504C334.683 79.1121 342.111 82.3311 351.397 82.3311C360.682 82.3311 368.11 79.1121 373.682 72.4266C379.129 65.8648 381.977 57.0746 381.977 46.0559C381.977 35.1609 379.129 26.4945 373.558 19.9328C367.987 13.4949 360.558 10.1521 351.273 10.1521Z" fill="white"/>
<path d="M304.893 2.1048V12.2569H275.303V90.2547H263.665V12.2569H234.076V2.1048H304.893Z" fill="white"/>
<path d="M226.542 27.9798L215.152 28.1036C213.914 16.0944 206.609 10.1517 193.238 10.1517C186.924 10.1517 181.972 11.3897 178.505 13.9897C175.038 16.4658 173.305 20.0562 173.305 24.7608C173.305 26.3703 173.553 27.856 174.048 29.094C174.543 30.3321 175.41 31.3225 176.648 32.313C177.886 33.3034 179 34.0463 179.991 34.7891C181.105 35.4081 182.838 36.0272 185.067 36.6462C187.419 37.389 189.276 37.8843 190.638 38.1319C192.124 38.3795 194.228 38.8747 197.2 39.4937C200.914 40.2366 203.885 40.9794 206.238 41.5984C208.714 42.2175 211.561 43.2079 214.78 44.5698C218.123 46.0555 220.723 47.5411 222.704 49.2744C224.685 51.0077 226.294 53.2362 227.78 55.9599C229.265 58.8075 229.885 62.0264 229.885 65.493C229.885 71.6833 228.151 76.8832 224.685 81.0926C221.218 85.302 217.009 88.1495 212.056 89.759C207.104 91.4923 201.657 92.2351 195.59 92.2351C184.572 92.2351 175.781 89.6352 169.096 84.4353C162.41 79.2355 159.067 71.4357 159.067 61.1598H170.334C170.581 68.712 173.181 74.1594 177.886 77.626C182.714 81.0926 188.905 82.8259 196.581 82.8259C202.647 82.8259 207.847 81.464 212.18 78.9879C216.39 76.5118 218.618 72.4261 218.618 66.7311C218.618 64.0073 217.999 61.7788 216.885 59.9217C215.647 58.0646 213.914 56.579 211.437 55.3409C208.961 54.1028 206.485 53.2362 204.009 52.4934C201.533 51.7505 198.19 50.8839 194.228 50.0172C193.609 49.8934 193.238 49.7696 192.99 49.6458C183.829 47.6649 177.886 45.9316 175.162 44.6936C166.496 40.9794 162.286 34.6653 162.286 25.5036C162.286 17.0848 165.382 10.8945 171.572 6.68511C177.762 2.4757 185.314 0.371004 194.105 0.371004C203.761 0.371004 211.561 2.72332 217.256 7.30414C223.075 12.0088 226.17 18.8181 226.542 27.9798Z" fill="white"/>
<path d="M150.187 2.1048V12.2569H100.789V39.8657H146.968V49.6463H100.789V80.1026H150.806V90.2547H89.1508V2.1048H150.187Z" fill="white"/>
<path d="M0 2.1048H12.752L59.3031 73.6647V2.1048H70.5694V90.2547H57.446L11.1425 19.5615V90.2547H0V2.1048Z" fill="white"/>
</svg>
