<svg width="121" height="51" viewBox="0 0 121 51" fill="none" xmlns="http://www.w3.org/2000/svg">
<path d="M33.6313 32.762C33.7652 34.3603 33.2239 36.0051 32.0054 37.2335C30.7869 38.4623 29.1457 39.0175 27.5451 38.8976C27.4112 37.2994 27.9524 35.6546 29.171 34.4262C30.3895 33.1977 32.0306 32.6423 33.6313 32.762Z" fill="black"/>
<path d="M30.732 30.5407C29.1345 32.2478 26.8268 33.2712 24.3073 33.1562C21.7881 33.0412 19.5835 31.8122 18.1484 29.967C19.7459 28.2599 22.0536 27.2366 24.5731 27.3515C27.0923 27.4665 29.2969 28.6956 30.732 30.5407Z" fill="black"/>
<path d="M17.2094 25.047C17.543 21.0497 19.5612 17.218 23.0765 14.694C26.5917 12.1702 30.8694 11.4814 34.7669 12.4406C34.4333 16.4378 32.415 20.2695 28.8997 22.7935C25.3845 25.3173 21.1067 26.0061 17.2094 25.047Z" fill="black"/>
<path d="M82.0082 20.1453V22.5794H83.4697V35.3047H86.0678V22.5794H89.4781V20.1453H86.0678V17.6545C86.0678 16.9405 86.1327 16.3672 86.2628 15.9344C86.3926 15.5017 86.566 15.1988 86.7823 15.0256C87.0206 14.831 87.3022 14.7336 87.627 14.7336C87.8865 14.7336 88.1573 14.7877 88.4388 14.8958C88.742 14.9824 89.0016 15.2095 89.2182 15.5774L90.6472 13.4354C90.4958 13.219 90.2792 13.0135 89.9976 12.8188C89.738 12.624 89.4241 12.4617 89.056 12.3319C88.6879 12.2021 88.2654 12.1372 87.7892 12.1372C86.8797 12.1372 86.1003 12.3319 85.4507 12.7213C84.823 13.0892 84.3356 13.6517 83.9892 14.409C83.6428 15.1663 83.4697 16.1399 83.4697 17.3299V20.1453H82.0082Z" fill="black"/>
<path d="M41.2066 15.1826V35.3045H52.8986V32.7082H43.9673V15.1826H41.2066Z" fill="black"/>
<path fill-rule="evenodd" clip-rule="evenodd" d="M59.8227 35.629C61.4251 35.629 62.8108 35.3153 63.9799 34.6877C65.1707 34.0389 66.1559 33.0867 66.9353 31.8318L64.8242 30.5012C64.2831 31.4099 63.6227 32.0915 62.8433 32.5458C62.0639 32.9785 61.1652 33.1949 60.1475 33.1949C59.1298 33.1949 58.2639 32.9785 57.5494 32.5458C56.8349 32.1131 56.2934 31.4857 55.9253 30.6635C55.6458 30.0387 55.4721 29.3138 55.4052 28.489H67.1628V28.1969C67.1844 28.0238 67.1952 27.8615 67.1952 27.7101C67.1952 26.1306 66.9137 24.7676 66.3509 23.6208C65.7878 22.474 64.976 21.5978 63.9151 20.9919C62.8757 20.3645 61.6198 20.0508 60.1475 20.0508C58.6752 20.0508 57.376 20.3753 56.2501 21.0244C55.1459 21.6735 54.28 22.5822 53.652 23.7506C53.0457 24.919 52.7425 26.2821 52.7425 27.8399C52.7425 29.3761 53.0349 30.7284 53.6196 31.8967C54.2256 33.0651 55.0594 33.9849 56.1204 34.6553C57.2029 35.3044 58.4369 35.629 59.8227 35.629ZM55.9578 24.7892C55.7503 25.2284 55.5978 25.726 55.5005 26.2821H64.3551C64.3051 25.571 64.126 24.9437 63.8174 24.3997C63.4709 23.7506 62.9839 23.2422 62.3559 22.8744C61.7283 22.5065 60.9918 22.3226 60.1475 22.3226C59.1514 22.3226 58.2963 22.539 57.5818 22.9717C56.8889 23.3828 56.3475 23.9886 55.9578 24.7892Z" fill="black"/>
<path fill-rule="evenodd" clip-rule="evenodd" d="M77.7715 27.1193C77.3632 26.8516 76.8434 26.6159 76.2127 26.4119C75.4982 26.1522 74.5995 26.0224 73.5169 26.0224C71.6766 26.0224 70.2368 26.466 69.1974 27.3531C68.1798 28.2185 67.6711 29.3761 67.6711 30.8258C67.6711 31.8426 67.909 32.7081 68.3853 33.4221C68.8618 34.1362 69.4898 34.6877 70.2692 35.0771C71.0702 35.4453 71.9257 35.629 72.8349 35.629C73.6575 35.629 74.4805 35.4777 75.3032 35.1747C76.1478 34.8718 76.8515 34.4067 77.4143 33.7792C77.5488 33.6347 77.6678 33.4816 77.7715 33.32V35.3044H80.3697V24.5944C80.3697 23.6208 80.1209 22.7986 79.6227 22.1279C79.1465 21.4572 78.4644 20.9487 77.5769 20.6025C76.7106 20.2347 75.6929 20.0508 74.5238 20.0508C73.1381 20.0508 71.9473 20.2563 70.9513 20.6674C69.9768 21.0785 69.2083 21.4896 68.6452 21.9007L69.9119 23.8155C70.1499 23.6424 70.475 23.4369 70.8864 23.1989C71.2977 22.9608 71.7956 22.7553 72.3803 22.5822C72.9866 22.4092 73.6575 22.3226 74.394 22.3226C74.8486 22.3226 75.2816 22.3658 75.6929 22.4524C76.1042 22.539 76.4615 22.6796 76.7647 22.8744C77.0895 23.069 77.3386 23.3395 77.5116 23.6857C77.685 24.0103 77.7715 24.4322 77.7715 24.9515V27.1193ZM70.6914 29.3004C70.4314 29.6899 70.3017 30.1551 70.3017 30.696C70.3017 31.2585 70.4314 31.7453 70.6914 32.1564C70.9729 32.5675 71.3518 32.8812 71.828 33.0976C72.3262 33.2923 72.889 33.3897 73.5169 33.3897C74.318 33.3897 75.0325 33.2274 75.6605 32.9028C76.3101 32.5783 76.8188 32.1239 77.1868 31.5397C77.5769 30.9339 77.7715 30.2415 77.7715 29.4626V28.9011C77.3555 28.6988 76.9333 28.5398 76.5048 28.4241C75.7037 28.1861 74.8486 28.0671 73.9391 28.0671C73.0948 28.0671 72.4019 28.1753 71.8605 28.3917C71.341 28.608 70.9513 28.911 70.6914 29.3004Z" fill="black"/>
<path fill-rule="evenodd" clip-rule="evenodd" d="M100.752 34.6877C99.583 35.3153 98.1973 35.629 96.5952 35.629C95.2094 35.629 93.9751 35.3044 92.8925 34.6553C91.8316 33.9849 90.9981 33.0651 90.3918 31.8967C89.807 30.7284 89.515 29.3761 89.515 27.8399C89.515 26.2821 89.8182 24.919 90.4242 23.7506C91.0522 22.5822 91.9181 21.6735 93.0223 21.0244C94.1485 20.3753 95.4474 20.0508 96.92 20.0508C98.3923 20.0508 99.6479 20.3645 100.687 20.9919C101.748 21.5978 102.56 22.474 103.123 23.6208C103.686 24.7676 103.967 26.1306 103.967 27.7101C103.967 27.8615 103.957 28.0238 103.935 28.1969V28.489H92.1773C92.2446 29.3138 92.418 30.0387 92.6979 30.6635C93.0659 31.4857 93.607 32.1131 94.3215 32.5458C95.0361 32.9785 95.9023 33.1949 96.92 33.1949C97.9374 33.1949 98.8361 32.9785 99.6155 32.5458C100.395 32.0915 101.055 31.4099 101.597 30.5012L103.708 31.8318C102.928 33.0867 101.943 34.0389 100.752 34.6877ZM92.273 26.2821C92.3703 25.726 92.5228 25.2284 92.7303 24.7892C93.12 23.9886 93.6611 23.3828 94.354 22.9717C95.0685 22.539 95.924 22.3226 96.92 22.3226C97.7643 22.3226 98.5004 22.5065 99.1284 22.8744C99.7561 23.2422 100.243 23.7506 100.59 24.3997C100.898 24.9437 101.078 25.571 101.128 26.2821H92.273Z" fill="black"/>
</svg>
