<svg width="139" height="51" viewBox="0 0 139 51" fill="none" xmlns="http://www.w3.org/2000/svg">
<path d="M50.1106 33.3951C48.5507 33.3951 47.1718 33.0876 45.9738 32.4731C44.7759 31.8444 43.8497 30.9573 43.1951 29.812C42.5404 28.6665 42.2131 27.3186 42.2131 25.768C42.2131 24.2175 42.5404 22.8695 43.1951 21.7241C43.8497 20.5647 44.7759 19.6777 45.9738 19.063C47.1718 18.4344 48.5507 18.1201 50.1106 18.1201C51.1692 18.1201 52.1025 18.2319 52.9103 18.4554C53.7323 18.6649 54.4843 19.0002 55.1666 19.4611V22.4993C54.5539 21.9965 53.8506 21.6333 53.0567 21.4098C52.2766 21.1723 51.3853 21.0536 50.3824 21.0536C49.4491 21.0536 48.6062 21.2491 47.8542 21.6403C47.116 22.0174 46.5311 22.5622 46.0993 23.2746C45.6675 23.987 45.4514 24.8181 45.4514 25.768C45.4514 26.7319 45.6465 27.577 46.0364 28.3034C46.4405 29.0158 47.0045 29.5675 47.7288 29.9587C48.453 30.3498 49.2889 30.5454 50.236 30.5454C51.0996 30.5454 51.8516 30.3917 52.4924 30.0844V27.2557H50.1315V24.909H55.5636V31.9702C54.1847 32.92 52.3672 33.3951 50.1106 33.3951Z" fill="black"/>
<path d="M56.2972 23.0233H59.3475V24.4691C59.7515 23.9802 60.3155 23.61 61.0398 23.3586C61.7641 23.0931 62.5861 22.9604 63.5051 22.9604V25.3701C62.5442 25.3701 61.6944 25.5167 60.9563 25.8101C60.232 26.1034 59.7306 26.5504 59.452 27.1511V33.0809H56.2972V23.0233Z" fill="black"/>
<path d="M69.5681 33.3952C67.6458 33.3952 66.1344 32.9341 65.0341 32.012C63.9338 31.0764 63.3837 29.7702 63.3837 28.0939C63.3837 26.4316 63.8712 25.1186 64.8461 24.1548C65.8351 23.1909 67.2418 22.709 69.0666 22.709C70.2643 22.709 71.2811 22.9325 72.1169 23.3795C72.9525 23.8265 73.5865 24.4481 74.0182 25.2443C74.45 26.0265 74.6658 26.9136 74.6658 27.9054V29.1835H66.3924C66.6152 30.4686 67.8129 31.1113 69.9857 31.1113C70.6265 31.1113 71.2882 31.0554 71.9705 30.9435C72.6532 30.8318 73.2453 30.6782 73.7467 30.4826V32.7038C73.2591 32.913 72.6323 33.0809 71.8661 33.2067C71.1002 33.3322 70.334 33.3952 69.5681 33.3952ZM71.6781 27.1301C71.6364 26.4596 71.3856 25.9428 70.926 25.5796C70.4665 25.2024 69.8325 25.0138 69.0247 25.0138C68.2308 25.0138 67.6039 25.2024 67.1444 25.5796C66.6848 25.9567 66.434 26.4736 66.3924 27.1301H71.6781Z" fill="black"/>
<path d="M81.1325 33.3952C79.2106 33.3952 77.6991 32.9341 76.5989 32.012C75.4986 31.0764 74.9481 29.7702 74.9481 28.0939C74.9481 26.4316 75.4357 25.1186 76.4109 24.1548C77.3996 23.1909 78.8065 22.709 80.6311 22.709C81.8291 22.709 82.8458 22.9325 83.6817 23.3795C84.5172 23.8265 85.1509 24.4481 85.5827 25.2443C86.0145 26.0265 86.2305 26.9136 86.2305 27.9054V29.1835H77.9568C78.1796 30.4686 79.3776 31.1113 81.5505 31.1113C82.1912 31.1113 82.8529 31.0554 83.5353 30.9435C84.2177 30.8318 84.8097 30.6782 85.3112 30.4826V32.7038C84.8236 32.913 84.197 33.0809 83.4308 33.2067C82.6646 33.3322 81.8987 33.3952 81.1325 33.3952ZM83.2428 27.1301C83.2009 26.4596 82.9503 25.9428 82.4908 25.5796C82.031 25.2024 81.3973 25.0138 80.5895 25.0138C79.7955 25.0138 79.1687 25.2024 78.7091 25.5796C78.2493 25.9567 77.9987 26.4736 77.9568 27.1301H83.2428Z" fill="black"/>
<path d="M86.9308 23.0233H89.9811V24.2595C90.4409 23.7427 90.984 23.3585 91.6109 23.1071C92.2516 22.8417 92.9201 22.709 93.6167 22.709C94.9817 22.709 95.9985 23.0792 96.6669 23.8195C97.3493 24.5459 97.6908 25.5307 97.6908 26.7739V33.0809H94.5357V27.1301C94.5357 25.831 93.9369 25.1815 92.7389 25.1815C92.2097 25.1815 91.7153 25.3142 91.2555 25.5796C90.796 25.831 90.4061 26.2082 90.0856 26.711V33.0809H86.9308V23.0233Z" fill="black"/>
<path d="M100.474 21.4725C99.9869 21.4725 99.5761 21.3119 99.2417 20.9906C98.9073 20.6693 98.7402 20.2642 98.7402 19.7753C98.7402 19.3004 98.9073 18.9023 99.2417 18.581C99.5761 18.2457 99.9869 18.0781 100.474 18.0781C100.962 18.0781 101.373 18.2457 101.707 18.581C102.041 18.9023 102.208 19.3004 102.208 19.7753C102.208 20.2642 102.041 20.6693 101.707 20.9906C101.373 21.3119 100.962 21.4725 100.474 21.4725ZM98.8863 23.0231H102.062V33.0807H98.8863V23.0231Z" fill="black"/>
<path d="M107.443 33.3952C106.691 33.3952 105.883 33.3111 105.019 33.1436C104.17 32.99 103.501 32.7665 103.013 32.4732V30.0007C103.571 30.3359 104.239 30.6083 105.019 30.8179C105.799 31.0273 106.524 31.1321 107.192 31.1321C107.763 31.1321 108.181 31.0832 108.446 30.9855C108.71 30.8877 108.843 30.7061 108.843 30.4407C108.843 30.2312 108.766 30.0636 108.613 29.9378C108.46 29.7981 108.223 29.6794 107.903 29.5816C107.596 29.4699 107.081 29.3092 106.356 29.0997C105.507 28.8483 104.838 28.5968 104.351 28.3454C103.877 28.08 103.515 27.7517 103.264 27.3606C103.027 26.9695 102.909 26.4666 102.909 25.8519C102.909 24.8043 103.32 24.022 104.142 23.5052C104.977 22.9744 106.106 22.709 107.527 22.709C108.223 22.709 108.94 22.7858 109.678 22.9395C110.43 23.0792 111.009 23.2677 111.413 23.5052V25.9148C111.009 25.6494 110.479 25.4329 109.824 25.2653C109.184 25.0976 108.557 25.0138 107.944 25.0138C107.373 25.0138 106.927 25.0697 106.607 25.1815C106.301 25.2932 106.147 25.5027 106.147 25.8101C106.147 26.0754 106.294 26.278 106.586 26.4177C106.893 26.5574 107.457 26.732 108.279 26.9415L108.696 27.0463C109.574 27.2837 110.256 27.5492 110.744 27.8425C111.231 28.1219 111.573 28.4641 111.768 28.8692C111.977 29.2603 112.081 29.7562 112.081 30.3569C112.081 31.2789 111.684 32.0191 110.89 32.578C110.096 33.1226 108.947 33.3952 107.443 33.3952Z" fill="black"/>
<path d="M112.81 17.5962H115.965V24.1755C116.439 23.6866 116.975 23.3234 117.574 23.0859C118.173 22.8345 118.814 22.7088 119.496 22.7088C120.861 22.7088 121.878 23.0789 122.547 23.8193C123.229 24.5457 123.57 25.5305 123.57 26.7737V33.0807H120.416V27.1299C120.416 25.8308 119.816 25.1813 118.619 25.1813C118.089 25.1813 117.595 25.3139 117.135 25.5794C116.676 25.8308 116.286 26.208 115.965 26.7108V33.0807H112.81V17.5962Z" fill="black"/>
<path fill-rule="evenodd" clip-rule="evenodd" d="M31.4386 20.5609C31.4386 23.2225 29.2873 25.3801 26.6334 25.3801C23.9794 25.3801 21.828 23.2225 21.828 20.5609C21.828 17.8993 23.9794 15.7417 26.6334 15.7417C29.2873 15.7417 31.4386 17.8993 31.4386 20.5609ZM15.4556 25.0299C20.691 24.676 25.2538 28.607 25.6788 33.8686C25.7228 34.4138 25.7207 34.9519 25.6757 35.4796C20.4404 35.8335 15.8776 31.9025 15.4526 26.6409C15.4086 26.0957 15.4107 25.5574 15.4556 25.0299ZM29.0631 35.2953C34.3096 34.8691 38.2293 30.2932 37.8764 25.0428C37.3503 24.9977 36.8137 24.9956 36.27 25.0398C31.0235 25.466 27.1038 30.0419 27.4567 35.2923C27.9827 35.3374 28.5194 35.3395 29.0631 35.2953Z" fill="black"/>
</svg>
