<svg width="150" height="51" viewBox="0 0 150 51" fill="none" xmlns="http://www.w3.org/2000/svg">
<path d="M28.5499 16.1086H19.9633V13.4385H28.5499C31.514 13.4385 33.9166 15.8294 33.9166 18.7788V27.3234H31.2333V18.7788C31.2333 17.3041 30.0319 16.1086 28.5499 16.1086Z" fill="black"/>
<path d="M18.8899 31.0614H27.4766V33.7316H18.8899C15.926 33.7316 13.5232 31.3405 13.5232 28.3913V19.8467H16.2066V28.3913C16.2066 29.8658 17.4079 31.0614 18.8899 31.0614Z" fill="black"/>
<path fill-rule="evenodd" clip-rule="evenodd" d="M29.0866 23.5849C29.0866 26.5343 26.684 28.9254 23.72 28.9254C20.756 28.9254 18.3533 26.5343 18.3533 23.5849C18.3533 20.6356 20.756 18.2446 23.72 18.2446C26.684 18.2446 29.0866 20.6356 29.0866 23.5849ZM26.4034 23.5849C26.4034 25.0596 25.202 26.2551 23.72 26.2551C22.238 26.2551 21.0366 25.0596 21.0366 23.5849C21.0366 22.1103 22.238 20.9148 23.72 20.9148C25.202 20.9148 26.4034 22.1103 26.4034 23.5849Z" fill="black"/>
<path d="M45.3679 32.0314C44.3517 32.0314 43.4369 31.8581 42.6236 31.5112C41.8105 31.15 41.1716 30.6442 40.7071 29.9941C40.2424 29.3439 40.01 28.5853 40.01 27.7185H42.6673C42.7253 28.3687 42.9794 28.9033 43.4297 29.3222C43.8942 29.7412 44.5403 29.9508 45.3679 29.9508C46.2247 29.9508 46.8926 29.7484 47.3718 29.3439C47.8508 28.9249 48.0904 28.3904 48.0904 27.7402C48.0904 27.2345 47.938 26.8227 47.6332 26.5048C47.3426 26.1869 46.9725 25.9413 46.5223 25.7679C46.0868 25.5946 45.4768 25.4067 44.6927 25.2045C43.7055 24.9444 42.8997 24.6843 42.2753 24.4242C41.6654 24.1497 41.1427 23.7307 40.7071 23.1672C40.2714 22.6037 40.0537 21.8524 40.0537 20.9133C40.0537 20.0464 40.2714 19.2878 40.7071 18.6376C41.1427 17.9875 41.7526 17.489 42.5367 17.1422C43.3207 16.7954 44.2283 16.6221 45.2592 16.6221C46.7257 16.6221 47.9235 16.9905 48.8528 17.7274C49.7965 18.4498 50.3192 19.4468 50.4209 20.7182H47.6766C47.6332 20.1692 47.3718 19.6996 46.8926 19.3095C46.4133 18.9194 45.7819 18.7243 44.9978 18.7243C44.2862 18.7243 43.7055 18.9049 43.2553 19.2661C42.8053 19.6274 42.5801 20.1475 42.5801 20.8266C42.5801 21.2889 42.7181 21.6718 42.9939 21.9752C43.2842 22.2642 43.6473 22.4954 44.0831 22.6687C44.5186 22.8421 45.1138 23.03 45.8689 23.2322C46.8708 23.5068 47.6839 23.7813 48.3083 24.0558C48.9472 24.3303 49.4844 24.7565 49.9199 25.3345C50.3702 25.898 50.5951 26.6565 50.5951 27.6101C50.5951 28.3759 50.3847 29.0982 49.9637 29.7775C49.5569 30.4565 48.9545 31.0055 48.1559 31.4245C47.3718 31.829 46.4426 32.0314 45.3679 32.0314Z" fill="black"/>
<path d="M58.4906 19.7427C59.4346 19.7427 60.2767 19.9377 61.0173 20.3278C61.7721 20.7179 62.3603 21.2959 62.7813 22.0617C63.2023 22.8274 63.413 23.7521 63.413 24.8357V31.8794H60.9518V25.2042C60.9518 24.135 60.6832 23.3187 60.146 22.7552C59.6088 22.1772 58.8754 21.8883 57.9462 21.8883C57.0169 21.8883 56.2763 22.1772 55.7246 22.7552C55.1874 23.3187 54.9188 24.135 54.9188 25.2042V31.8794H52.4359V19.9377H54.9188V21.3031C55.3253 20.8119 55.8408 20.429 56.4652 20.1544C57.1041 19.8799 57.7793 19.7427 58.4906 19.7427Z" fill="black"/>
<path d="M64.6634 25.8544C64.6634 24.6551 64.9103 23.5932 65.404 22.6685C65.9123 21.7438 66.5946 21.0286 67.4512 20.5229C68.3225 20.0027 69.2807 19.7427 70.3261 19.7427C71.2701 19.7427 72.0904 19.9305 72.7873 20.3062C73.4989 20.6674 74.0651 21.1225 74.4861 21.6715V19.9377H76.9908V31.8794H74.4861V30.1022C74.0651 30.6656 73.4914 31.1353 72.7656 31.511C72.0395 31.8867 71.2119 32.0744 70.2827 32.0744C69.2517 32.0744 68.308 31.8143 67.4512 31.2941C66.5946 30.7596 65.9123 30.0226 65.404 29.0835C64.9103 28.13 64.6634 27.0537 64.6634 25.8544ZM74.4861 25.8977C74.4861 25.0742 74.312 24.359 73.9634 23.7521C73.6296 23.1453 73.1866 22.6829 72.6349 22.3651C72.0832 22.0472 71.4877 21.8883 70.8488 21.8883C70.2099 21.8883 69.6148 22.0472 69.0631 22.3651C68.5111 22.6685 68.0611 23.1236 67.7125 23.7304C67.3787 24.3228 67.2118 25.0308 67.2118 25.8544C67.2118 26.6779 67.3787 27.4003 67.7125 28.0216C68.0611 28.643 68.5111 29.1198 69.0631 29.452C69.6293 29.77 70.2247 29.9289 70.8488 29.9289C71.4877 29.9289 72.0832 29.77 72.6349 29.452C73.1866 29.1343 73.6296 28.6718 73.9634 28.0649C74.312 27.4438 74.4861 26.7212 74.4861 25.8977Z" fill="black"/>
<path d="M81.6459 21.6932C82.0669 21.1442 82.6406 20.6818 83.3664 20.3062C84.0926 19.9305 84.9129 19.7427 85.8276 19.7427C86.8731 19.7427 87.8241 20.0027 88.6809 20.5229C89.5521 21.0286 90.2345 21.7438 90.7283 22.6685C91.2217 23.5932 91.4686 24.6551 91.4686 25.8544C91.4686 27.0537 91.2217 28.13 90.7283 29.0835C90.2345 30.0226 89.5521 30.7596 88.6809 31.2941C87.8241 31.8143 86.8731 32.0744 85.8276 32.0744C84.9129 32.0744 84.0998 31.8939 83.3884 31.5326C82.6768 31.1569 82.0961 30.6947 81.6459 30.1454V37.5575H79.163V19.9377H81.6459V21.6932ZM88.9422 25.8544C88.9422 25.0308 88.7681 24.3228 88.4195 23.7304C88.0854 23.1236 87.6354 22.6685 87.0692 22.3651C86.5173 22.0472 85.9221 21.8883 85.2832 21.8883C84.6588 21.8883 84.0636 22.0472 83.4971 22.3651C82.9454 22.6829 82.4954 23.1453 82.1469 23.7521C81.8131 24.359 81.6459 25.0742 81.6459 25.8977C81.6459 26.7212 81.8131 27.4438 82.1469 28.0649C82.4954 28.6718 82.9454 29.1343 83.4971 29.452C84.0636 29.77 84.6588 29.9289 85.2832 29.9289C85.9221 29.9289 86.5173 29.77 87.0692 29.452C87.6354 29.1198 88.0854 28.643 88.4195 28.0216C88.7681 27.4003 88.9422 26.6779 88.9422 25.8544Z" fill="black"/>
<path d="M97.8225 32.0314C96.8063 32.0314 95.8916 31.8581 95.0783 31.5112C94.2652 31.15 93.6263 30.6442 93.1618 29.9941C92.697 29.3439 92.4647 28.5853 92.4647 27.7185H95.122C95.18 28.3687 95.4341 28.9033 95.8841 29.3222C96.3488 29.7412 96.995 29.9508 97.8225 29.9508C98.6793 29.9508 99.3472 29.7484 99.8265 29.3439C100.305 28.9249 100.545 28.3904 100.545 27.7402C100.545 27.2345 100.393 26.8227 100.088 26.5048C99.7972 26.1869 99.4272 25.9413 98.9769 25.7679C98.5414 25.5946 97.9315 25.4067 97.1474 25.2045C96.1602 24.9444 95.3541 24.6843 94.73 24.4242C94.12 24.1497 93.5973 23.7307 93.1618 23.1672C92.726 22.6037 92.5084 21.8524 92.5084 20.9133C92.5084 20.0464 92.726 19.2878 93.1618 18.6376C93.5973 17.9875 94.2072 17.489 94.9913 17.1422C95.7754 16.7954 96.6829 16.6221 97.7136 16.6221C99.1803 16.6221 100.378 16.9905 101.307 17.7274C102.251 18.4498 102.774 19.4468 102.876 20.7182H100.131C100.088 20.1692 99.8265 19.6996 99.3472 19.3095C98.868 18.9194 98.2363 18.7243 97.4522 18.7243C96.7409 18.7243 96.1602 18.9049 95.7099 19.2661C95.2599 19.6274 95.0348 20.1475 95.0348 20.8266C95.0348 21.2889 95.1727 21.6718 95.4486 21.9752C95.7389 22.2642 96.102 22.4954 96.5375 22.6687C96.9732 22.8421 97.5684 23.03 98.3235 23.2322C99.3255 23.5068 100.139 23.7813 100.763 24.0558C101.402 24.3303 101.939 24.7565 102.375 25.3345C102.825 25.898 103.05 26.6565 103.05 27.6101C103.05 28.3759 102.839 29.0982 102.418 29.7775C102.012 30.4565 101.409 31.0055 100.611 31.4245C99.8265 31.829 98.897 32.0314 97.8225 32.0314Z" fill="black"/>
<path d="M111.098 19.7429C112.012 19.7429 112.826 19.9379 113.537 20.328C114.263 20.7181 114.829 21.2961 115.236 22.0619C115.657 22.8276 115.868 23.7523 115.868 24.836V31.8797H113.406V25.2044C113.406 24.1352 113.138 23.3189 112.601 22.7554C112.063 22.1774 111.33 21.8885 110.401 21.8885C109.472 21.8885 108.731 22.1774 108.179 22.7554C107.642 23.3189 107.373 24.1352 107.373 25.2044V31.8797H104.891V15.8418H107.373V21.325C107.794 20.8193 108.324 20.4292 108.963 20.1547C109.617 19.8801 110.328 19.7429 111.098 19.7429Z" fill="black"/>
<path d="M123.151 32.0744C122.018 32.0744 120.995 31.8215 120.08 31.3158C119.165 30.7956 118.447 30.0734 117.924 29.1487C117.401 28.2096 117.14 27.1258 117.14 25.8977C117.14 24.684 117.408 23.6076 117.946 22.6685C118.483 21.7293 119.216 21.0069 120.145 20.5012C121.075 19.9955 122.113 19.7427 123.26 19.7427C124.407 19.7427 125.445 19.9955 126.375 20.5012C127.304 21.0069 128.037 21.7293 128.574 22.6685C129.112 23.6076 129.38 24.684 129.38 25.8977C129.38 27.1113 129.104 28.1877 128.552 29.127C128.001 30.0661 127.246 30.7956 126.287 31.3158C125.344 31.8215 124.298 32.0744 123.151 32.0744ZM123.151 29.9289C123.79 29.9289 124.385 29.7772 124.937 29.4736C125.503 29.1703 125.961 28.715 126.309 28.1084C126.658 27.5015 126.832 26.7645 126.832 25.8977C126.832 25.0308 126.665 24.3011 126.331 23.7088C125.997 23.1019 125.554 22.6468 125.002 22.3434C124.451 22.04 123.855 21.8883 123.217 21.8883C122.578 21.8883 121.982 22.04 121.431 22.3434C120.893 22.6468 120.465 23.1019 120.145 23.7088C119.826 24.3011 119.666 25.0308 119.666 25.8977C119.666 27.1837 119.993 28.1805 120.646 28.8886C121.314 29.582 122.149 29.9289 123.151 29.9289Z" fill="black"/>
<path d="M133.642 21.9535V28.5636C133.642 29.0116 133.744 29.3366 133.947 29.539C134.165 29.7267 134.528 29.8207 135.036 29.8207H136.561V31.8796H134.601C133.483 31.8796 132.626 31.6196 132.031 31.0994C131.435 30.5793 131.138 29.7339 131.138 28.5636V21.9535H129.722V19.9379H131.138V16.9688H133.642V19.9379H136.561V21.9535H133.642Z" fill="black"/>
</svg>
