<svg width="115" height="19" viewBox="0 0 115 19" fill="none" xmlns="http://www.w3.org/2000/svg">
<path d="M8.73079 0.844915C9.15325 0 10.3502 0.0352048 10.7375 0.844915L13.061 5.52715L18.2009 6.26645C19.1162 6.40727 19.4683 7.53383 18.7994 8.20272L15.1029 11.8288L15.983 16.9335C16.1238 17.8488 15.1381 18.5529 14.3284 18.1305L9.75173 15.7013L5.1399 18.1305C4.33019 18.5529 3.34446 17.8488 3.48528 16.9335L4.3654 11.8288L0.668891 8.20272C0 7.53383 0.352048 6.40727 1.26737 6.26645L6.44248 5.52715L8.73079 0.844915ZM32.6137 0.844915C33.0362 0 34.2331 0.0352048 34.6204 0.844915L36.9439 5.52715L42.0838 6.26645C42.9991 6.40727 43.3512 7.53383 42.6823 8.20272L38.9858 11.8288L39.8659 16.9335C40.0067 17.8488 39.021 18.5529 38.2113 18.1305L33.6347 15.7013L29.0228 18.1305C28.2131 18.5529 27.2274 17.8488 27.3682 16.9335L28.2483 11.8288L24.5518 8.20272C23.8829 7.53383 24.235 6.40727 25.1503 6.26645L30.3254 5.52715L32.6137 0.844915ZM56.4967 0.844915C56.9191 0 58.1161 0.0352048 58.5033 0.844915L60.8269 5.52715L65.9668 6.26645C66.8821 6.40727 67.2341 7.53383 66.5652 8.20272L62.8687 11.8288L63.7489 16.9335C63.8897 17.8488 62.9039 18.5529 62.0942 18.1305L57.5176 15.7013L52.9058 18.1305C52.0961 18.5529 51.1103 17.8488 51.2512 16.9335L52.1313 11.8288L48.4348 8.20272C47.7659 7.53383 48.1179 6.40727 49.0332 6.26645L54.2084 5.52715L56.4967 0.844915ZM80.3796 0.844915C80.8021 0 81.999 0.0352048 82.3863 0.844915L84.7098 5.52715L89.8497 6.26645C90.765 6.40727 91.1171 7.53383 90.4482 8.20272L86.7517 11.8288L87.6318 16.9335C87.7726 17.8488 86.7869 18.5529 85.9772 18.1305L81.4005 15.7013L76.7887 18.1305C75.979 18.5529 74.9933 17.8488 75.1341 16.9335L76.0142 11.8288L72.3177 8.20272C71.6488 7.53383 72.0009 6.40727 72.9162 6.26645L78.0913 5.52715L80.3796 0.844915ZM104.263 0.844915C104.685 0 105.882 0.0352048 106.269 0.844915L108.593 5.52715L113.733 6.26645C114.648 6.40727 115 7.53383 114.331 8.20272L110.635 11.8288L111.515 16.9335C111.656 17.8488 110.67 18.5529 109.86 18.1305L105.283 15.7013L100.672 18.1305C99.8619 18.5529 98.8762 17.8488 99.017 16.9335L99.8971 11.8288L96.2006 8.20272C95.5318 7.53383 95.8838 6.40727 96.7991 6.26645L101.974 5.52715L104.263 0.844915Z" fill="white"/>
</svg>
